<?xml version="1.0" encoding="UTF-8"?><svg id="dark_logo" xmlns="http://www.w3.org/2000/svg" viewBox="0 0 642.33 257.61"><defs><style>.cls-1{fill:#fff;}.cls-2{fill:#4ac500;}</style></defs><path class="cls-1" d="M6.39,34.33C-1.31,26.73-1.51,14.33,6.09,6.63l.3-.3c7.6-7.7,20-7.9,27.7-.3.1.1.2.2.3.3,7.7,7.6,7.9,20,.3,27.7-.1.1-.2.2-.3.3-7.6,7.7-20,7.9-27.7.3-.1-.2-.2-.2-.3-.3ZM35.79,212.93H4.39V63.93h31.4v149Z"/><path class="cls-1" d="M127.39,44.33c-9.6,0-17.5,2-23.7,5.9s-9.2,9.8-9.2,17.8,3.1,14,9.2,18.2c6.2,4.2,19.3,8.7,39.3,13.6,20.1,4.9,35.2,11.7,45.4,20.4s15.3,21.7,15.3,38.8-6.4,30.9-19.3,41.6c-12.9,10.6-29.8,16-50.7,16-30.6,0-57.8-10.6-81.5-31.7l20.7-24.9c19.8,17.2,40.3,25.8,61.6,25.8,10.6,0,19.1-2.3,25.3-6.9,6.3-4.6,9.4-10.6,9.4-18.2s-2.9-13.4-8.8-17.6-16-8-30.4-11.5-25.3-6.6-32.8-9.5c-7.2-2.7-13.9-6.5-19.9-11.3-11.6-8.8-17.4-22.2-17.4-40.3s6.6-32.1,19.7-41.9c13.2-9.8,29.4-14.7,48.9-14.7,12.7,0,25.2,2.1,37.2,6.2,11.6,3.7,22.5,9.6,31.9,17.4l-17.6,24.9c-5.8-5.2-13.6-9.5-23.5-12.9-9.3-3.4-19.2-5.1-29.1-5.2Z"/><path class="cls-1" d="M302.29,63.13c20,0,37.1,6.9,51.2,20.7s21.3,32.2,21.3,55.2-7,41.6-21.1,56c-14.1,14.4-30.5,21.6-49.3,21.6s-35.6-8.2-50.5-24.6v65h-31.4V65.33h31.4v26c12.3-18.8,28.5-28.2,48.4-28.2ZM253.29,140.13c0,14.2,4.3,25.8,12.9,34.9,8,8.8,19.4,13.7,31.4,13.6,12.3,0,23-4.5,32.2-13.4s13.7-20.6,13.7-34.9-4.5-26.1-13.4-35.6c-9-9.4-19.7-14.1-32.2-14.1s-23,4.7-31.6,14.1c-8.6,9.4-13,21.2-13,35.4h0Z"/><path class="cls-1" d="M588.19,90.53v75.6c0,7.1,1.9,12.7,5.6,16.9,3.7,4.2,9,6.3,15.7,6.3s13.2-3.3,19.3-9.8l12.9,22.1c-11,9.9-23.2,14.8-36.5,14.8-12.8.2-25.1-4.8-34.2-13.9-9.4-9.2-14.1-21.7-14.1-37.4V18.63h31.3v46.8h39.2v25.2l-39.2-.1Z"/><circle class="cls-2" cx="465.59" cy="140.83" r="76.1"/><path class="cls-1" d="M455.29,101.53l-13.5-8.2c-3.9-2.3-7.8.6-7.8,4.6v86.1c-.2,2.8,2,5.2,4.8,5.3,1,.1,2-.2,2.9-.7,1.2-.7,6.5-3.9,13.7-8.3v-78.8h-.1Z"/><path class="cls-1" d="M463.69,175.23l21.3-13v-42.5l-21.3-13v68.5Z"/><path class="cls-1" d="M512.19,136.23l-18.7-11.4v32.2c9.8-6,17.5-10.7,18.7-11.5,2.6-1.6,3.4-5,1.7-7.6-.4-.7-1-1.2-1.7-1.7Z"/></svg>